HIERARCHY
ROOT Hips
{
	OFFSET 0.000000 97.420761 0.000000
	CHANNELS 6 Xposition Yposition Zposition Xrotation Yrotation Zrotation
	JOINT RightUpLeg
	{
		OFFSET -8.571318 0.002251 -0.000250
		CHANNELS 6 Xposition Yposition Zposition Xrotation Yrotation Zrotation
		JOINT RightLeg
		{
			OFFSET 0.000000 -44.326080 -0.000105
			CHANNELS 6 Xposition Yposition Zposition Xrotation Yrotation Zrotation
			JOINT RightFoot
			{
				OFFSET 0.000000 -43.324329 -0.000176
				CHANNELS 6 Xposition Yposition Zposition Xrotation Yrotation Zrotation
				JOINT RightToeBase
				{
					OFFSET 0.000000 -7.938133 18.050686
					CHANNELS 6 Xposition Yposition Zposition Xrotation Yrotation Zrotation
					End Site
					{
						OFFSET 0.000000 0.000000 19.719055
					}
				}
			}
		}
	}
	JOINT LeftUpLeg
	{
		OFFSET 8.571318 -0.000084 0.000009
		CHANNELS 6 Xposition Yposition Zposition Xrotation Yrotation Zrotation
		JOINT LeftLeg
		{
			OFFSET 0.000000 -44.326080 -0.000105
			CHANNELS 6 Xposition Yposition Zposition Xrotation Yrotation Zrotation
			JOINT LeftFoot
			{
				OFFSET 0.000000 -43.324329 -0.000176
				CHANNELS 6 Xposition Yposition Zposition Xrotation Yrotation Zrotation
				JOINT LeftToeBase
				{
					OFFSET 0.000000 -7.938133 18.050686
					CHANNELS 6 Xposition Yposition Zposition Xrotation Yrotation Zrotation
					End Site
					{
						OFFSET 0.000000 0.000000 19.719055
					}
				}
			}
		}
	}
	JOINT Spine
	{
		OFFSET 0.000000 10.422829 -1.158092
		CHANNELS 6 Xposition Yposition Zposition Xrotation Yrotation Zrotation
		JOINT Spine1
		{
			OFFSET 0.000000 11.587624 0.000000
			CHANNELS 3 Xrotation Yrotation Zrotation
			JOINT Spine2
			{
				OFFSET 0.000000 10.579559 -0.000443
				CHANNELS 6 Xposition Yposition Zposition Xrotation Yrotation Zrotation
				JOINT Spine3
				{
					OFFSET 0.000000 10.567749 -0.000444
					CHANNELS 6 Xposition Yposition Zposition Xrotation Yrotation Zrotation
					JOINT LeftShoulder
					{
						OFFSET 3.218383 8.290512 0.000000
						CHANNELS 6 Xposition Yposition Zposition Xrotation Yrotation Zrotation
						JOINT LeftArm
						{
							OFFSET 15.038529 0.000000 0.000000
							CHANNELS 3 Xrotation Yrotation Zrotation
							JOINT LeftForeArm
							{
								OFFSET 32.129166 0.000000 0.000000
								CHANNELS 3 Xrotation Yrotation Zrotation
								JOINT LeftHand
								{
									OFFSET 26.275406 0.000000 0.000000
									CHANNELS 3 Xrotation Yrotation Zrotation
									End Site
									{
										OFFSET 26.275406 0.000000 0.000000
									}
								}
							}
						}
					}
					JOINT RightShoulder
					{
						OFFSET -3.218383 8.290512 0.000000
						CHANNELS 6 Xposition Yposition Zposition Xrotation Yrotation Zrotation
						JOINT RightArm
						{
							OFFSET -15.038529 0.000000 0.000000
							CHANNELS 3 Xrotation Yrotation Zrotation
							JOINT RightForeArm
							{
								OFFSET -32.129166 0.000000 0.000000
								CHANNELS 3 Xrotation Yrotation Zrotation
								JOINT RightHand
								{
									OFFSET -26.275406 0.000000 0.000000
									CHANNELS 3 Xrotation Yrotation Zrotation
									End Site
									{
										OFFSET -26.275406 0.000000 0.000000
									}
								}
							}
						}
					}
					JOINT Neck
					{
						OFFSET 0.000000 14.789474 0.000000
						CHANNELS 6 Xposition Yposition Zposition Xrotation Yrotation Zrotation
						JOINT Head
						{
							OFFSET 0.000000 9.838806 0.000953
							CHANNELS 6 Xposition Yposition Zposition Xrotation Yrotation Zrotation
							End Site
							{
								OFFSET 0.000000 9.838806 0.000000
							}
						}
					}
				}
			}
		}
	}
}
MOTION
Frames: 6
Frame Time: 0.016667
-27.239349 47.592045 74.461281 72.560665 20.577084 -48.088486 -8.571319 0.002251 -0.000255 -56.305095 -3.079239 -7.807706 0.000006 -44.326080 -0.000109 96.317572 -0.695306 -0.704706 -0.000002 -43.324337 -0.000176 4.655293 4.434673 -0.524313 -0.000002 -7.938131 18.050694 -100.116537 -5.171533 4.943232 8.571320 -0.000083 0.000004 -62.219267 0.409784 7.414937 -0.000002 -44.326077 -0.000099 106.554598 -0.490589 -0.599713 -0.000009 -43.324333 -0.000178 -2.488760 -10.232673 -10.490443 -0.000005 -7.938127 18.050688 -84.979130 0.031220 -0.045559 -0.000002 10.422829 -1.158094 8.636967 -2.646544 -2.232493 -1.975988 -1.023000 -1.150911 -0.000006 10.579557 -0.000440 3.844441 -1.022878 -1.151014 -0.000002 10.567755 -0.000441 8.721837 -0.844385 -0.788001 3.218383 8.290504 0.000006 1.093858 -4.851690 -4.253729 -67.110816 -56.799877 -80.868525 -23.821261 -6.508959 14.288567 22.404728 -50.556647 55.248727 -3.218387 8.290514 0.000002 2.236354 21.990764 2.339339 -82.302133 43.944146 82.579624 7.793602 -4.280111 -12.748847 11.253004 40.453288 -53.875733 -0.000001 14.789455 0.000003 13.799208 1.204676 -0.634693 0.000002 9.838802 0.000954 -10.399692 2.434511 -0.683609 
-27.253510 47.586803 74.438507 72.507096 20.637126 -48.088295 -8.571312 0.002258 -0.000241 -56.324171 -3.089126 -7.817293 -0.000001 -44.326084 -0.000102 97.132810 -0.738885 -0.719623 0.000002 -43.324326 -0.000179 4.293874 4.381141 -0.486595 -0.000006 -7.938133 18.050688 -96.462850 -4.978439 5.430784 8.571326 -0.000083 0.000018 -62.200115 0.384859 7.407350 0.000000 -44.326084 -0.000104 106.886423 -0.456139 -0.545623 0.000001 -43.324329 -0.000179 -2.654890 -10.418809 -10.437135 0.000005 -7.938135 18.050692 -83.541403 -0.106372 0.177846 0.000007 10.422832 -1.158087 8.681422 -2.751578 -2.193885 -1.956159 -1.071460 -1.140822 -0.000016 10.579559 -0.000446 3.864273 -1.071343 -1.140928 0.000010 10.567748 -0.000434 8.736845 -0.879841 -0.777121 3.218380 8.290514 -0.000005 1.095617 -4.655619 -4.414274 -67.008500 -56.832095 -80.724756 -23.726226 -6.643466 14.382135 22.248067 -50.526359 55.013281 -3.218383 8.290512 -0.000005 2.284815 22.365779 2.232306 -82.314503 44.138373 82.494075 7.874310 -4.509258 -12.847427 11.120409 40.395009 -53.969843 -0.000005 14.789471 -0.000005 13.776930 1.249555 -0.676006 -0.000004 9.838816 0.000956 -10.440503 2.532216 -0.740776 
-27.249588 47.568607 74.404259 72.459592 20.690446 -48.101658 -8.571324 0.002258 -0.000250 -56.320456 -3.092029 -7.846228 0.000004 -44.326077 -0.000100 97.733628 -0.738441 -0.701863 -0.000005 -43.324329 -0.000176 4.025466 4.320485 -0.467228 -0.000011 -7.938137 18.050692 -93.790778 -4.834562 5.817409 8.571312 -0.000076 0.000010 -62.185013 0.393436 7.377522 0.000002 -44.326080 -0.000102 107.168482 -0.381249 -0.449704 -0.000002 -43.324326 -0.000174 -2.807082 -10.602720 -10.402670 0.000002 -7.938133 18.050688 -82.411977 -0.234466 0.411680 -0.000003 10.422839 -1.158094 8.705659 -2.873745 -2.119622 -1.945535 -1.129847 -1.116049 0.000005 10.579558 -0.000447 3.874905 -1.129735 -1.116165 -0.000008 10.567756 -0.000450 8.744976 -0.921703 -0.754567 3.218382 8.290508 0.000006 1.067505 -4.415221 -4.601091 -66.933108 -56.816553 -80.638586 -23.719403 -6.681656 14.407340 22.212730 -50.523644 54.942520 -3.218381 8.290513 0.000009 2.347453 22.782014 2.086613 -82.315275 44.290222 82.420344 7.999580 -4.764942 -12.933370 10.972638 40.289309 -54.026646 0.000003 14.789469 0.000007 13.774711 1.294171 -0.747072 0.000009 9.838794 0.000948 -10.443305 2.640919 -0.852439 
-27.238083 47.544575 74.365059 72.417115 20.743107 -48.122193 -8.571325 0.002257 -0.000256 -56.308722 -3.091427 -7.886044 0.000007 -44.326088 -0.000095 98.270856 -0.719525 -0.667145 0.000000 -43.324333 -0.000176 3.781011 4.251170 -0.455286 0.000003 -7.938136 18.050688 -91.403975 -4.699738 6.183691 8.571314 -0.000077 0.000008 -62.172282 0.424457 7.335581 0.000005 -44.326077 -0.000097 107.417586 -0.287059 -0.323216 0.000005 -43.324329 -0.000173 -2.949332 -10.792463 -10.376675 0.000002 -7.938130 18.050688 -81.462362 -0.363820 0.666353 -0.000009 10.422835 -1.158097 8.720689 -3.006833 -2.026413 -1.939169 -1.194303 -1.083591 -0.000004 10.579563 -0.000448 3.881272 -1.194192 -1.083718 -0.000002 10.567730 -0.000446 8.749907 -0.967561 -0.725836 3.218386 8.290504 0.000002 1.018857 -4.148392 -4.797174 -66.868085 -56.813903 -80.575154 -23.793335 -6.648367 14.386110 22.244965 -50.528630 54.971459 -3.218374 8.290504 -0.000001 2.418287 23.226888 1.919295 -82.321026 44.436596 82.364630 8.153398 -5.063709 -13.023987 10.784732 40.136715 -54.043797 0.000005 14.789472 -0.000006 13.777444 1.337381 -0.832684 -0.000010 9.838797 0.000947 -10.436420 2.752699 -0.991181 
-27.230278 47.520584 74.341507 72.394097 20.806880 -48.141222 -8.571321 0.002249 -0.000254 -56.290570 -3.098318 -7.929577 -0.000003 -44.326080 -0.000104 98.779213 -0.710138 -0.633031 0.000001 -43.324326 -0.000176 3.537570 4.164862 -0.427027 0.000001 -7.938121 18.050686 -89.114919 -4.567252 6.558671 8.571320 -0.000085 0.000009 -62.153055 0.453412 7.291412 -0.000002 -44.326084 -0.000093 107.638563 -0.223825 -0.193953 0.000003 -43.324341 -0.000176 -3.079409 -10.953698 -10.357126 0.000002 -7.938130 18.050686 -80.565974 -0.473451 0.899726 -0.000004 10.422832 -1.158091 8.729880 -3.123403 -1.952301 -1.935364 -1.250300 -1.058450 0.000009 10.579561 -0.000449 3.885067 -1.250191 -1.058577 0.000006 10.567757 -0.000452 8.752877 -1.007618 -0.703154 3.218382 8.290517 -0.000001 0.977027 -3.927724 -4.947950 -66.815451 -56.874589 -80.502344 -23.936688 -6.549345 14.305808 22.324321 -50.523828 55.075043 -3.218387 8.290516 -0.000002 2.477277 23.633194 1.800164 -82.351919 44.607668 82.352328 8.331192 -5.464808 -13.152398 10.477019 39.908505 -53.960171 0.000002 14.789470 -0.000005 13.779855 1.364787 -0.901277 -0.000000 9.838795 0.000953 -10.430314 2.829155 -1.105184 
-27.233131 47.502163 74.350433 72.411938 20.884307 -48.156495 -8.571321 0.002250 -0.000248 -56.267812 -3.122703 -7.972646 0.000003 -44.326080 -0.000098 99.193833 -0.729015 -0.608275 0.000002 -43.324322 -0.000177 3.320353 4.068097 -0.373174 0.000003 -7.938128 18.050690 -87.193819 -4.460532 6.906117 8.571319 -0.000083 0.000010 -62.127401 0.468692 7.250230 -0.000012 -44.326080 -0.000100 107.791935 -0.232380 -0.078411 0.000006 -43.324329 -0.000176 -3.174027 -11.042817 -10.348168 -0.000000 -7.938129 18.050690 -79.820753 -0.542323 1.064338 0.000001 10.422828 -1.158092 8.731749 -3.188331 -1.930808 -1.934558 -1.280244 -1.053138 -0.000007 10.579561 -0.000445 3.885868 -1.280135 -1.053268 0.000013 10.567754 -0.000446 8.753553 -1.029607 -0.697093 3.218390 8.290510 0.000000 0.960495 -3.830540 -4.994784 -66.825423 -57.022845 -80.448926 -24.117765 -6.359547 14.161558 22.452394 -50.506431 55.265294 -3.218370 8.290510 0.000003 2.501024 23.897044 1.792642 -82.422987 44.773536 82.410515 8.538526 -5.978479 -13.330047 10.044064 39.618700 -53.764439 0.000006 14.789472 0.000005 13.778357 1.359182 -0.921173 0.000009 9.838811 0.000949 -10.432516 2.826737 -1.143476 
